<svg width="100" height="100" xmlns="http://www.w3.org/2000/svg" xmlns:xlink="http://www.w3.org/1999/xlink" xml:space="preserve" overflow="hidden"><defs><clipPath id="clip0"><rect x="0" y="0" width="100" height="100"/></clipPath></defs><g clip-path="url(#clip0)"><path d="M22.3958 48.676C29.6969 48.676 35.4167 45.3687 35.4167 41.1458L35.4167 40.1042 31.1458 40.1042 24.4042 14.0885 45.8333 22.8771C45.8273 24.5729 46.8497 26.1033 48.4187 26.7469 48.5949 26.8127 48.7751 26.867 48.9583 26.9094L48.9583 84.375 41.6667 84.375C39.3655 84.375 37.5 86.2405 37.5 88.5417L39.5833 88.5417C39.5833 87.391 40.516 86.4583 41.6667 86.4583L58.3333 86.4583C59.484 86.4583 60.4167 87.391 60.4167 88.5417L62.5 88.5417C62.5 86.2405 60.6345 84.375 58.3333 84.375L51.0417 84.375 51.0417 26.9094C51.2341 26.8647 51.423 26.8066 51.6073 26.7354 52.1215 26.5204 52.5872 26.2045 52.9771 25.8062L76.0417 35.2667 68.8542 63.0208 64.5833 63.0208 64.5833 64.0625C64.5833 68.2854 70.3031 71.5927 77.6042 71.5927 84.9052 71.5927 90.625 68.2854 90.625 64.0625L90.625 63.0208 86.3542 63.0208 79.5333 36.6969 81.4083 37.4667C81.9407 37.685 82.5494 37.4303 82.7677 36.8979 82.986 36.3655 82.7313 35.7569 82.199 35.5385L54.0021 23.976C54.6567 21.8601 53.4721 19.6141 51.3561 18.9595 51.2525 18.9274 51.1476 18.8996 51.0417 18.876L51.0417 9.375C51.0417 8.7997 50.5753 8.33333 50 8.33333 49.4247 8.33333 48.9583 8.7997 48.9583 9.375L48.9583 18.874C47.8685 19.1574 46.9409 19.8719 46.3885 20.8531L19.4292 9.79167C18.9029 9.55921 18.2879 9.79736 18.0554 10.3236 17.8229 10.8498 18.0611 11.4649 18.5874 11.6974 18.6046 11.705 18.622 11.7121 18.6396 11.7188L20.7729 12.5948 13.6458 40.1042 9.375 40.1042 9.375 41.1458C9.375 45.3687 15.0948 48.676 22.3958 48.676ZM88.3333 65.1042C87.326 67.5781 82.8219 69.5094 77.6042 69.5094 72.3865 69.5094 67.8844 67.5781 66.875 65.1042ZM84.2083 63.0208 71.0021 63.0208 77.5937 37.5969C77.5937 37.5911 77.5984 37.5865 77.6042 37.5865 77.6099 37.5865 77.6146 37.5911 77.6146 37.5969ZM48.0719 22.101C48.3859 21.3459 49.1128 20.8444 49.9302 20.8187 49.9542 20.8187 49.975 20.8333 50 20.8333 50.025 20.8333 50.0552 20.8187 50.0844 20.8167 50.3266 20.8237 50.5656 20.8735 50.7906 20.9635 51.8631 21.3801 52.3949 22.5873 51.9783 23.6598 51.5617 24.7324 50.3545 25.2641 49.282 24.8475 49.2576 24.838 49.2334 24.8281 49.2094 24.8177 48.1448 24.3814 47.6355 23.1646 48.0719 22.1ZM22.4062 14.6802 28.9979 40.1042 15.7937 40.1042 22.3854 14.6802C22.3854 14.6745 22.3901 14.6698 22.3958 14.6698 22.4016 14.6698 22.4062 14.6745 22.4062 14.6802ZM33.125 42.1875C32.1177 44.6615 27.6135 46.5927 22.3958 46.5927 17.1781 46.5927 12.676 44.6615 11.6667 42.1875Z" fill="#000000" fill-rule="nonzero" fill-opacity="1"/><path d="M25 89.5833 75 89.5833 75 91.6667 25 91.6667Z" fill="#000000" fill-rule="nonzero" fill-opacity="1"/></g></svg>